<?xml version="1.0" encoding="UTF-8" standalone="no"?>
<!-- Created with Inkscape (http://www.inkscape.org/) -->

<svg
   xmlns:dc="http://purl.org/dc/elements/1.1/"
   xmlns:cc="http://creativecommons.org/ns#"
   xmlns:rdf="http://www.w3.org/1999/02/22-rdf-syntax-ns#"
   xmlns:svg="http://www.w3.org/2000/svg"
   xmlns="http://www.w3.org/2000/svg"
   xmlns:sodipodi="http://sodipodi.sourceforge.net/DTD/sodipodi-0.dtd"
   xmlns:inkscape="http://www.inkscape.org/namespaces/inkscape"
   version="1.1"
   id="svg29"
   xml:space="preserve"
   width="1267"
   height="614"
   viewBox="0 0 1267 614"
   sodipodi:docname="docentLogo.svg"
   inkscape:version="0.92.1 r15371"><metadata
     id="metadata35"><rdf:RDF><cc:Work
         rdf:about=""><dc:format>image/svg+xml</dc:format><dc:type
           rdf:resource="http://purl.org/dc/dcmitype/StillImage" /><dc:title></dc:title></cc:Work></rdf:RDF></metadata><defs
     id="defs33"><clipPath
       clipPathUnits="userSpaceOnUse"
       id="clipPath45"><path
         d="M 0,460.5 H 950.25 V 0 H 0 Z"
         id="path43"
         inkscape:connector-curvature="0" /></clipPath></defs><sodipodi:namedview
     pagecolor="#ffffff"
     bordercolor="#666666"
     borderopacity="1"
     objecttolerance="10"
     gridtolerance="10"
     guidetolerance="10"
     inkscape:pageopacity="0"
     inkscape:pageshadow="2"
     inkscape:window-width="1920"
     inkscape:window-height="1016"
     id="namedview31"
     showgrid="false"
     inkscape:zoom="1.3403909"
     inkscape:cx="633.40495"
     inkscape:cy="307.23525"
     inkscape:window-x="0"
     inkscape:window-y="27"
     inkscape:window-maximized="1"
     inkscape:current-layer="g37" /><g
     id="g37"
     inkscape:groupmode="layer"
     inkscape:label="docentLogo"
     transform="matrix(1.3333333,0,0,-1.3333333,0,614)"><g
       id="g39"><g
         id="g41"
         clip-path="url(#clipPath45)"><g
           id="g47"
           transform="translate(360.3159,212.3027)"><path
             d="m 0,0 c -0.374,11.047 -3.356,21.371 -8.643,31.052 -1.052,1.927 -2.415,3.529 -4.66,4.025 -2.598,0.573 -5.058,0.23 -6.786,-1.986 -1.978,-2.534 -1.848,-5.402 -0.484,-8.125 2.129,-4.248 4.124,-8.533 5.334,-13.146 1.269,-4.841 1.965,-9.757 2.147,-14.768 0.156,-4.275 2.998,-7.09 6.723,-6.98 3.646,0.108 6.15,2.823 6.362,6.935 C 0.044,-1.998 0,-0.998 0,0 m 233.4,-8.55 v 0.75 c -0.001,5.92 0,5.92 -5.466,4.049 -5.645,-1.933 -12.135,-0.301 -15.781,3.967 -3.672,4.299 -4.354,10.926 -1.665,16.2 2.608,5.115 7.948,7.916 14.081,7.141 1.953,-0.247 3.916,-0.861 5.732,-1.64 2.147,-0.922 3.069,-0.428 3.07,1.879 0.002,2.499 -0.093,5.004 0.041,7.496 0.155,2.91 -1.319,4.249 -3.938,5.043 -4.279,1.297 -8.626,1.428 -12.996,1.058 -14.654,-1.239 -26.054,-15.17 -24.43,-29.755 1.98,-17.764 14.958,-28.001 32.793,-25.865 7.514,0.901 8.553,2.076 8.559,9.677 M 388.235,2.868 h 0.018 c 0,-5.371 0.057,-10.744 -0.024,-16.114 -0.039,-2.561 1.053,-3.646 3.589,-3.573 2.87,0.082 5.758,0.175 8.616,-0.031 3.501,-0.253 4.545,1.251 4.493,4.614 -0.155,10.116 0.073,20.239 -0.118,30.354 -0.069,3.644 1.293,4.81 4.792,4.782 5.763,-0.045 5.792,0.114 5.764,5.848 -0.034,6.789 0.916,7.448 -6.713,7.115 -3.045,-0.133 -3.925,1.254 -3.803,4.038 0.137,3.117 -0.063,6.248 0.045,9.367 0.092,2.628 -0.805,3.998 -3.644,3.888 -3.119,-0.12 -6.25,-0.12 -9.368,0 -2.828,0.11 -3.743,-1.235 -3.66,-3.875 0.108,-3.369 -0.003,-6.745 0.007,-10.117 0.006,-1.792 -0.305,-3.246 -2.577,-3.272 -2.026,-0.024 -2.879,-1.237 -2.886,-3.153 -0.009,-2.248 -0.015,-4.496 0.011,-6.744 0.019,-1.699 0.712,-2.951 2.549,-3.117 2.475,-0.223 2.956,-1.755 2.93,-3.895 -0.064,-5.371 -0.021,-10.743 -0.021,-16.115 m -528.953,-2.913 c 0.079,-2.612 -0.755,-6.19 2.625,-8.546 2.1,-1.464 4.339,-1.8 6.716,-0.616 2.808,1.397 3.75,3.784 3.817,6.758 0.232,10.332 2.766,20.087 8.382,28.775 12.324,19.061 29.786,28.507 52.688,27.473 5.692,-0.257 11.051,-1.79 16.428,-3.472 4.686,-1.467 8.018,-0.144 9.497,3.413 1.562,3.755 -0.236,7.359 -4.772,9.064 -10.943,4.112 -22.179,5.369 -33.857,4.047 -33.183,-3.758 -60.287,-32.787 -61.524,-66.896 m 71.193,-17.483 c 6.681,0.417 13.253,3.27 16.964,10.283 9.351,17.665 18.385,35.497 27.514,53.279 0.54,1.052 1.481,2.317 0.231,3.409 -1.039,0.91 -2.15,0.048 -3.112,-0.447 -17.769,-9.156 -35.614,-18.166 -53.246,-27.579 -8.349,-4.458 -11.904,-14.37 -9.319,-23.629 2.536,-9.082 10.528,-15.223 20.968,-15.316 M 317.472,9.579 c 0,-7.115 -0.024,-14.231 0.009,-21.347 0.021,-4.714 0.355,-5.008 5.191,-5.04 2.246,-0.014 4.504,0.135 6.739,-0.031 3.298,-0.245 4.387,1.202 4.326,4.401 -0.145,7.612 -0.029,15.229 -0.043,22.843 -0.006,2.532 0.344,4.985 1.449,7.28 2.012,4.173 6.358,6.504 10.757,5.807 4.405,-0.698 7.053,-3.442 7.782,-8.354 0.346,-2.336 0.488,-4.718 0.513,-7.081 0.07,-6.991 0.069,-13.982 0.024,-20.972 -0.015,-2.596 0.942,-3.991 3.731,-3.904 2.992,0.093 5.992,0.083 8.986,0.003 2.594,-0.07 3.531,1.167 3.517,3.653 -0.065,10.86 0.19,21.727 -0.136,32.579 -0.298,9.896 -5.99,15.844 -15.713,17.496 -6.792,1.154 -12.883,-0.096 -18.151,-4.727 -0.818,-0.718 -2.39,-2.278 -2.555,0.11 -0.263,3.787 -2.559,3.659 -5.174,3.601 -2.371,-0.053 -4.751,-0.134 -7.113,0.015 -3.138,0.198 -4.199,-1.263 -4.162,-4.237 0.093,-7.363 0.03,-14.73 0.023,-22.095 M 282.59,7.067 v 0.037 c 5,0 10.006,0.153 14.997,-0.051 3.628,-0.148 4.825,1.265 4.703,4.843 -0.452,13.228 -9.226,23.381 -22.204,25.384 -15.573,2.404 -27.71,-4.459 -32.088,-18.146 -5.522,-17.258 3.561,-34.167 20.03,-37.124 4.324,-0.777 8.755,-0.71 13.084,-0.143 8.586,1.125 15.278,5.193 19.133,13.276 1.032,2.165 0.665,3.246 -1.93,3.362 -2.491,0.112 -4.984,0.391 -7.451,0.761 -2.886,0.431 -5.031,-0.056 -7.234,-2.48 -3.254,-3.581 -7.878,-3.41 -12.269,-2.327 -4.318,1.064 -6.574,4.216 -7.726,8.367 -0.814,2.938 0.172,4.271 3.207,4.251 5.249,-0.035 10.499,-0.01 15.748,-0.01 M 149.315,-18.396 c 4.426,-0.248 9.308,0.689 13.948,2.691 10.816,4.664 16.114,13.385 16.317,24.728 0.196,10.975 -4.334,19.945 -14.684,24.978 -10.265,4.992 -20.791,4.965 -31.125,0.338 -10.568,-4.733 -16.838,-16.474 -15.205,-27.583 2.346,-15.961 13.253,-25.075 30.749,-25.152 m -46.419,44.855 c 0,12.744 0.018,25.488 -0.009,38.232 -0.011,4.622 -0.381,4.963 -4.853,5.009 -2.248,0.023 -4.513,-0.163 -6.743,0.041 -3.708,0.341 -4.729,-1.341 -4.673,-4.832 0.162,-10.117 0.06,-20.239 0.028,-30.359 -0.003,-0.949 0.308,-2.149 -0.734,-2.723 -0.968,-0.532 -1.633,0.411 -2.224,0.97 -6.904,6.538 -20.797,6.156 -29.018,0.12 -8.758,-6.43 -11.433,-15.384 -10.81,-25.705 0.617,-10.227 4.993,-18.589 14.266,-23.066 8.978,-4.333 18.166,-4.24 26.136,3.093 0.908,0.836 2.232,1.541 2.272,-0.466 0.068,-3.483 2.177,-3.705 4.779,-3.595 1.621,0.068 3.248,0.01 4.872,0.01 6.701,0.006 6.71,0.006 6.712,6.54 0.007,12.244 0.002,24.487 -0.001,36.731 m -462.712,-239.262 c 0,152.375 0.009,304.75 -0.07,457.125 -0.002,2.812 0.633,3.446 3.445,3.445 315.625,-0.074 631.25,-0.07 946.875,-0.07 0.093,-1.867 0.268,-3.734 0.268,-5.602 0.012,-149.495 0.011,-298.991 0.009,-448.487 0,-1.375 -0.047,-2.749 -0.049,-4.124 -0.003,-1.695 -0.842,-2.514 -2.53,-2.515 -1.25,-0.001 -2.499,-0.049 -3.749,-0.049 -312.99,-0.002 -625.981,-0.002 -938.972,0.01 -1.743,0 -3.485,0.174 -5.227,0.267"
             style="fill:#000000;fill-opacity:1;fill-rule:nonzero;stroke:none"
             id="path49"
             inkscape:connector-curvature="0" /></g><g
           id="g51"
           transform="translate(420.9521,221.8262)"><path
             d="M 0,0 C -0.009,7.879 5.917,14.052 13.466,14.026 20.999,14 27.04,7.767 27.052,0.008 27.064,-7.553 20.745,-13.924 13.267,-13.893 5.972,-13.861 0.009,-7.617 0,0"
             style="fill:#000000;fill-opacity:1;fill-rule:nonzero;stroke:none"
             id="path53"
             inkscape:connector-curvature="0" /></g><g
           id="g55"
           transform="translate(509.3486,207.7773)"><path
             d="M 0,0 C -7.889,0.011 -13.846,6.057 -13.876,14.084 -13.906,22.05 -7.89,28.177 -0.023,28.193 7.88,28.209 13.791,22.179 13.792,14.099 13.793,5.999 7.914,-0.01 0,0"
             style="fill:#000000;fill-opacity:1;fill-rule:nonzero;stroke:none"
             id="path57"
             inkscape:connector-curvature="0" /></g><g
           id="g59"
           transform="translate(635.7393,228.811)"><path
             d="m 0,0 c -2.868,0 -5.736,-0.017 -8.604,0.005 -2.595,0.019 -2.974,1.398 -1.939,3.427 C -8.334,7.759 -4.596,9.71 0.103,9.826 4.886,9.943 9.276,7.054 10.912,3.113 11.772,1.041 11.281,-0.008 8.979,-0.017 5.986,-0.028 2.993,-0.02 0,-0.02 Z"
             style="fill:#000000;fill-opacity:1;fill-rule:nonzero;stroke:none"
             id="path61"
             inkscape:connector-curvature="0" /></g><g
           id="g63"
           transform="translate(299.1885,215.8496)"><path
             d="m 0,0 c 0.067,-4.983 -4.126,-9.32 -9.154,-9.469 -4.926,-0.145 -9.339,4.092 -9.495,9.115 -0.154,4.955 4.05,9.481 8.965,9.653 C -4.527,9.48 -0.07,5.2 0,0"
             style="fill:#000000;fill-opacity:1;fill-rule:nonzero;stroke:none"
             id="path65"
             inkscape:connector-curvature="0" /></g></g></g></g></svg>